HIERARCHY
ROOT Hips
{
	OFFSET 0.000000 88.474243 0.000000
	CHANNELS 6 Xposition Yposition Zposition Zrotation Yrotation Xrotation 
	JOINT Hips_Spine
	{
		OFFSET 0.000000 0.000000 0.000000
		CHANNELS 3 Zrotation Yrotation Xrotation
		JOINT Spine
		{
			OFFSET 0.005100 8.711998 -0.691000
			CHANNELS 3 Zrotation Yrotation Xrotation
			JOINT Spine1
			{
				OFFSET -0.009200 8.660301 -1.275000
				CHANNELS 3 Zrotation Yrotation Xrotation
				JOINT Spine2
				{
					OFFSET 0.006300 9.852501 -1.857000
					CHANNELS 3 Zrotation Yrotation Xrotation
					JOINT Spine2_Neck
					{
						OFFSET 0.000000 0.000000 0.000000
						CHANNELS 3 Zrotation Yrotation Xrotation
						JOINT Neck
						{
							OFFSET 0.016300 11.420799 -0.263300
							CHANNELS 3 Zrotation Yrotation Xrotation
							End Site #name: Head
							{
								OFFSET -0.019200 9.262405 2.362500
							}
						}
					}
					JOINT Spine2_LeftShoulder
					{
						OFFSET 0.000000 0.000000 0.000000
						CHANNELS 3 Zrotation Yrotation Xrotation
						JOINT LeftShoulder
						{
							OFFSET 5.616900 6.732201 -0.345700
							CHANNELS 3 Zrotation Yrotation Xrotation
							JOINT LeftArm
							{
								OFFSET 10.664888 -0.183372 -2.440700
								CHANNELS 3 Zrotation Yrotation Xrotation
								JOINT LeftForeArm
								{
									OFFSET 27.459126 0.000000 0.000000
									CHANNELS 3 Zrotation Yrotation Xrotation
									End Site #name: LeftHand
									{
										OFFSET 21.306858 0.000000 0.000000
									}
								}
							}
						}
					}
					JOINT Spine2_RightShoulder
					{
						OFFSET 0.000000 0.000000 0.000000
						CHANNELS 3 Zrotation Yrotation Xrotation
						JOINT RightShoulder
						{
							OFFSET -5.580300 6.737503 -0.344400
							CHANNELS 3 Zrotation Yrotation Xrotation
							JOINT RightArm
							{
								OFFSET -10.679335 -0.188484 -2.383900
								CHANNELS 3 Zrotation Yrotation Xrotation
								JOINT RightForeArm
								{
									OFFSET -27.503529 0.000000 0.000000
									CHANNELS 3 Zrotation Yrotation Xrotation
									End Site #name: RightHand
									{
										OFFSET -21.306808 0.000000 0.000000
									}
								}
							}
						}
					}
				}
			}
		}
	}
	JOINT Hips_LeftUpLeg
	{
		OFFSET 0.000000 0.000000 0.000000
		CHANNELS 3 Zrotation Yrotation Xrotation
		JOINT LeftUpLeg
		{
			OFFSET 6.857700 -6.739601 0.312100
			CHANNELS 3 Zrotation Yrotation Xrotation
			JOINT LeftLeg
			{
				OFFSET -0.367590 -34.731552 -4.572400
				CHANNELS 3 Zrotation Yrotation Xrotation
				End Site #name: LeftFoot
				{
					OFFSET 0.367590 -34.656704 -6.067400
				}
			}
		}
	}
	JOINT Hips_RightUpLeg
	{
		OFFSET 0.000000 0.000000 0.000000
		CHANNELS 3 Zrotation Yrotation Xrotation
		JOINT RightUpLeg
		{
			OFFSET -6.876100 -6.733299 0.301000
			CHANNELS 3 Zrotation Yrotation Xrotation
			JOINT RightLeg
			{
				OFFSET 0.347353 -34.795158 -4.515900
				CHANNELS 3 Zrotation Yrotation Xrotation
				End Site #name: RightFoot
				{
					OFFSET -0.347353 -34.589367 -6.070300
				}
			}
		}
	}
}
MOTION
Frames: 14
Frame Time: 0.041667
-0.000000 0.000000 -0.000000 -4.589003 -4.846781 -2.711457 0.000000 0.000000 0.000000 -0.701388 0.684131 5.092069 -2.043963 1.509654 10.171357 0.000000 0.000000 0.000000 -2.043962 1.509655 10.171357 -1.759123 -3.708591 5.112678 -2.043962 1.509655 10.171357 1.476401 0.470589 0.189169 -70.208141 -20.597242 30.154651 -177.518133 -82.871772 177.572854 -2.043962 1.509655 10.171357 -4.853729 -2.178687 1.247982 80.714931 -8.269140 8.414018 -171.723630 85.242148 -172.015856 0.000000 0.000000 0.000000 7.254876 0.960923 -22.422165 -1.132304 0.527045 34.534174 0.000000 0.000000 0.000000 -2.491185 -3.532806 -16.923192 0.470216 -0.909936 26.822957 
0.084789 0.015328 0.064103 -4.614906 -4.953714 -2.696541 0.000000 0.000000 0.000000 -0.684664 0.672998 5.067993 -2.013558 1.486351 10.123578 0.000000 0.000000 0.000000 -2.013559 1.486352 10.123578 -1.650544 -3.711872 5.077084 -2.013559 1.486352 10.123578 1.415041 0.448145 0.180601 -70.346111 -20.306286 30.005520 -177.543312 -83.101874 177.588125 -2.013559 1.486352 10.123578 -4.719502 -2.130300 1.214593 80.652675 -8.236404 8.309105 -171.520236 85.367339 -171.815490 0.000000 0.000000 0.000000 7.203091 0.947339 -22.336681 -1.129364 0.527671 34.481458 0.000000 0.000000 0.000000 -2.541822 -3.446443 -16.812320 0.463924 -0.906197 26.616100 
0.174781 0.024887 0.121405 -4.635938 -5.053142 -2.676644 0.000000 0.000000 0.000000 -0.668245 0.662465 5.047393 -1.982478 1.464037 10.082755 0.000000 0.000000 0.000000 -1.982480 1.464038 10.082754 -1.558453 -3.726158 5.054856 -1.982480 1.464038 10.082754 1.370353 0.431716 0.174376 -70.533390 -20.059715 29.873237 -177.557874 -83.362074 177.592856 -1.982480 1.464038 10.082754 -4.591235 -2.083231 1.182558 80.552100 -8.197753 8.214421 -171.362666 85.467856 -171.659326 0.000000 0.000000 0.000000 7.142112 0.939992 -22.277396 -1.126958 0.529356 34.456529 0.000000 0.000000 0.000000 -2.616172 -3.398072 -16.735116 0.457508 -0.905044 26.450067 
0.270856 0.033524 0.174136 -4.646294 -5.163216 -2.642789 0.000000 0.000000 0.000000 -0.653721 0.657798 5.026295 -1.952261 1.453028 10.040839 0.000000 0.000000 0.000000 -1.952263 1.453027 10.040842 -1.480189 -3.745674 5.038933 -1.952263 1.453027 10.040842 1.317530 0.412631 0.167034 -70.711274 -19.830773 29.755330 -177.569313 -83.610829 177.593259 -1.952263 1.453027 10.040842 -4.465927 -2.035794 1.150928 80.428790 -8.170773 8.112958 -171.250650 85.543495 -171.548671 0.000000 0.000000 0.000000 7.065376 0.965856 -22.236666 -1.124572 0.531061 34.432222 0.000000 0.000000 0.000000 -2.717970 -3.371993 -16.691112 0.450408 -0.906061 26.299377 
0.371904 0.041596 0.226353 -4.642067 -5.298425 -2.601811 0.000000 0.000000 0.000000 -0.642854 0.662579 5.003933 -1.925919 1.460769 9.996235 0.000000 0.000000 0.000000 -1.925918 1.460767 9.996233 -1.414726 -3.767570 5.027344 -1.925918 1.460767 9.996233 1.283193 0.400203 0.162283 -70.885554 -19.612821 29.658905 -177.582238 -83.824712 177.596321 -1.925918 1.460767 9.996233 -4.350338 -1.987728 1.120691 80.311898 -8.174616 7.981195 -171.226565 85.576763 -171.525189 0.000000 0.000000 0.000000 6.971261 1.038571 -22.197737 -1.122147 0.532480 34.401673 0.000000 0.000000 0.000000 -2.839194 -3.324482 -16.668270 0.443621 -0.907664 26.162035 
0.476384 0.049408 0.279379 -4.618616 -5.455443 -2.564845 0.000000 0.000000 0.000000 -0.638514 0.674625 4.982204 -1.909057 1.483318 9.952723 0.000000 0.000000 0.000000 -1.909057 1.483320 9.952724 -1.352801 -3.785062 5.019489 -1.909057 1.483320 9.952724 1.292515 0.403176 0.163591 -71.062889 -19.412619 29.583060 -177.605088 -83.977961 177.611140 -1.909057 1.483320 9.952724 -4.270782 -1.948955 1.098525 80.250375 -8.200865 7.817722 -171.274407 85.571664 -171.571330 0.000000 0.000000 0.000000 6.855401 1.134687 -22.146320 -1.119550 0.533436 34.361131 0.000000 0.000000 0.000000 -2.975260 -3.233014 -16.649773 0.438078 -0.908431 26.035884 
0.583339 0.060097 0.330685 -4.588806 -5.614422 -2.530557 0.000000 0.000000 0.000000 -0.636757 0.686236 4.961872 -1.896643 1.505186 9.911979 0.000000 0.000000 0.000000 -1.896644 1.505185 9.911976 -1.254260 -3.756618 4.998728 -1.896644 1.505185 9.911976 1.342042 0.420208 0.170333 -71.217614 -19.226733 29.531118 -177.628878 -84.047934 177.629005 -1.896644 1.505185 9.911976 -4.246142 -1.933082 1.090750 80.238017 -8.218403 7.683479 -171.351291 85.547299 -171.644559 0.000000 0.000000 0.000000 6.729825 1.219890 -22.084123 -1.116533 0.533702 34.300500 0.000000 0.000000 0.000000 -3.110333 -3.111981 -16.620322 0.433054 -0.907485 25.891190 
0.693157 0.075531 0.378597 -4.580393 -5.757312 -2.487205 0.000000 0.000000 0.000000 -0.626981 0.690186 4.941469 -1.872243 1.511305 9.871297 0.000000 0.000000 0.000000 -1.872244 1.511304 9.871298 -1.051474 -3.593193 4.923950 -1.872244 1.511304 9.871298 1.435972 0.452649 0.183306 -71.360650 -19.047039 29.522096 -177.664866 -84.050253 177.660941 -1.872244 1.511304 9.871298 -4.261729 -1.938035 1.094806 80.200065 -8.223810 7.640213 -171.502361 85.488175 -171.791263 0.000000 0.000000 0.000000 6.622794 1.284293 -22.031635 -1.113225 0.533686 34.227344 0.000000 0.000000 0.000000 -3.220571 -2.993886 -16.573253 0.426807 -0.905017 25.693229 
0.807473 0.096634 0.424390 -4.605373 -5.886135 -2.424361 0.000000 0.000000 0.000000 -0.602337 0.685683 4.919626 -1.824801 1.499729 9.828027 0.000000 0.000000 0.000000 -1.824800 1.499731 9.828027 -0.707226 -3.209936 4.755018 -1.824800 1.499731 9.828027 1.598794 0.508851 0.205693 -71.563879 -18.884599 29.573373 -177.698148 -84.047013 177.689588 -1.824800 1.499731 9.828027 -4.287145 -1.947492 1.101396 80.097457 -8.246244 7.654747 -171.787216 85.362203 -172.072132 0.000000 0.000000 0.000000 6.546011 1.333419 -22.000054 -1.109597 0.533723 34.144923 0.000000 0.000000 0.000000 -3.281331 -2.903878 -16.505938 0.420848 -0.897842 25.436379 
0.929566 0.123764 0.468659 -4.646966 -6.019472 -2.340609 0.000000 0.000000 0.000000 -0.567599 0.679148 4.896239 -1.759473 1.483175 9.781822 0.000000 0.000000 0.000000 -1.759472 1.483173 9.781822 -0.265479 -2.612758 4.494705 -1.759472 1.483173 9.781822 1.847889 0.595075 0.240469 -71.886538 -18.761890 29.690085 -177.712777 -84.091872 177.699106 -1.759472 1.483173 9.781822 -4.299391 -1.944827 1.102860 79.958334 -8.305692 7.634849 -172.131096 85.196235 -172.413296 0.000000 0.000000 0.000000 6.478390 1.370933 -21.980718 -1.105011 0.533738 34.040290 0.000000 0.000000 0.000000 -3.331544 -2.825528 -16.434561 0.413273 -0.889492 25.121553 
1.059996 0.158028 0.514342 -4.691451 -6.163616 -2.247843 0.000000 0.000000 0.000000 -0.529813 0.677339 4.873491 -1.687221 1.475681 9.736884 0.000000 0.000000 0.000000 -1.687219 1.475681 9.736875 0.191052 -1.922893 4.182117 -1.687219 1.475681 9.736875 2.164442 0.705035 0.285163 -72.313079 -18.674099 29.858906 -177.724004 -84.161755 177.706217 -1.687219 1.475681 9.736875 -4.297770 -1.928245 1.098307 79.821849 -8.396314 7.539454 -172.387407 85.062353 -172.667838 0.000000 0.000000 0.000000 6.404251 1.393052 -21.949200 -1.099231 0.533053 33.899982 0.000000 0.000000 0.000000 -3.388819 -2.736302 -16.346480 0.405688 -0.880176 24.746048 
1.196229 0.195755 0.563882 -4.746773 -6.298279 -2.165410 0.000000 0.000000 0.000000 -0.490321 0.679943 4.855955 -1.611780 1.477139 9.702324 0.000000 0.000000 0.000000 -1.611779 1.477140 9.702329 0.622880 -1.284685 3.855022 -1.611779 1.477140 9.702329 2.491339 0.819164 0.332224 -72.777421 -18.581318 30.036403 -177.736017 -84.166621 177.714564 -1.611779 1.477140 9.702329 -4.320656 -1.921831 1.100295 79.716217 -8.493446 7.418624 -172.499558 84.992700 -172.778142 0.000000 0.000000 0.000000 6.335732 1.393904 -21.895166 -1.093263 0.531738 33.744126 0.000000 0.000000 0.000000 -3.432083 -2.653722 -16.216104 0.386536 -0.891417 24.324762 
1.334230 0.228524 0.614007 -4.815778 -6.412003 -2.092794 0.000000 0.000000 0.000000 -0.449234 0.683556 4.844586 -1.535888 1.481062 9.680085 0.000000 0.000000 0.000000 -1.535886 1.481063 9.680093 1.041176 -0.757568 3.540282 -1.535886 1.481063 9.680093 2.776709 0.919213 0.373987 -73.212691 -18.452280 30.170157 -177.765855 -84.054099 177.738237 -1.535886 1.481063 9.680093 -4.403516 -1.953618 1.121716 79.651013 -8.577231 7.347877 -172.561121 84.939752 -172.838054 0.000000 0.000000 0.000000 6.282229 1.391173 -21.848301 -1.088575 0.530894 33.620268 0.000000 0.000000 0.000000 -3.460824 -2.571956 -16.073147 0.370555 -0.896038 23.910833 
1.473265 0.249176 0.655664 -4.873833 -6.520271 -2.011412 0.000000 0.000000 0.000000 -0.413695 0.687781 4.834344 -1.470396 1.486403 9.660042 0.000000 0.000000 0.000000 -1.470394 1.486402 9.660038 1.464452 -0.318380 3.260937 -1.470394 1.486402 9.660038 3.002686 0.998002 0.407406 -73.576844 -18.302784 30.232722 -177.815824 -83.881655 177.781105 -1.470394 1.486402 9.660038 -4.519380 -2.016193 1.156660 79.593228 -8.649363 7.336581 -172.699815 84.838042 -172.974529 0.000000 0.000000 0.000000 6.219476 1.411342 -21.849808 -1.085630 0.531420 33.553647 0.000000 0.000000 0.000000 -3.502050 -2.475952 -15.990800 0.360430 -0.893839 23.582494 
